<svg xmlns="http://www.w3.org/2000/svg" viewBox="0 0 124.28 28.31"><defs><style>.cls-1{fill:#fff;}</style></defs><title>Asset 1</title><g id="Layer_2" data-name="Layer 2"><g id="Layer_1-2" data-name="Layer 1"><path class="cls-1" d="M57.28,28.3A14.34,14.34,0,0,0,71.81,14.15,14.35,14.35,0,0,0,57.28,0H43.07A14.35,14.35,0,0,0,28.54,14.15,14.34,14.34,0,0,0,43.07,28.3ZM43.11,24.37a10.39,10.39,0,0,1-10.57-10.2A10.38,10.38,0,0,1,43.11,4H57.28a10.39,10.39,0,0,1,10.57,10.2,10.4,10.4,0,0,1-10.57,10.2Z"/><polygon class="cls-1" points="16.27 28.31 28.48 0.01 24.14 0.01 14.24 23.12 4.35 0.01 0 0.01 12.21 28.31 16.27 28.31"/><path class="cls-1" d="M110.21,24.37l4.2-7.28h0a6.09,6.09,0,0,1,.51-.71,6.37,6.37,0,0,1,4.89-2.21v0h0a2.2,2.2,0,0,1-1.7-.73,2.11,2.11,0,0,1-.21-2.51L122,3.84h0L124.28,0H104.6V3.93h12.81L113.3,11v0a2.09,2.09,0,0,0,.27,2.4,2.33,2.33,0,0,0,1.82.73h-.12a6.42,6.42,0,0,0-4.92,2.21,4.75,4.75,0,0,0-.42.58l-4.26,7.44h0l-2.24,3.91,19.69,0V24.35Z"/><path class="cls-1" d="M102.47,14.15a2.21,2.21,0,0,0-2.15,1.7h0a10.59,10.59,0,0,1-20.44,1.2,2.26,2.26,0,0,1-.11-.69A2.21,2.21,0,0,1,82,14.15h-4.1a2.21,2.21,0,0,0-2.18,2.21,2.31,2.31,0,0,0,0,.46h0c0,.24.11.47.17.7a14.51,14.51,0,0,0,28.35-1.59l0-.07a2.21,2.21,0,0,1,2.14-1.72h0a2.21,2.21,0,0,1-2.14-1.72l0-.08a14.5,14.5,0,0,0-28.35-1.58c-.06.23-.12.46-.17.7h0a2.31,2.31,0,0,0,0,.46,2.22,2.22,0,0,0,2.18,2.22H82a2.22,2.22,0,0,1-2.21-2.22,2.26,2.26,0,0,1,.11-.69,10.59,10.59,0,0,1,20.44,1.2h0a2.22,2.22,0,0,0,2.15,1.7"/></g></g></svg>